<?xml version="1.0" encoding="UTF-8" standalone="no"?>
<svg
   xmlns:dc="http://purl.org/dc/elements/1.1/"
   xmlns:cc="http://creativecommons.org/ns#"
   xmlns:rdf="http://www.w3.org/1999/02/22-rdf-syntax-ns#"
   xmlns:svg="http://www.w3.org/2000/svg"
   xmlns="http://www.w3.org/2000/svg"
   xmlns:sodipodi="http://sodipodi.sourceforge.net/DTD/sodipodi-0.dtd"
   xmlns:inkscape="http://www.inkscape.org/namespaces/inkscape"
   version="1.1"
   id="svg70"
   width="177.28"
   height="129.60001"
   viewBox="0 0 177.28 129.60001"
   sodipodi:docname="favorite.svg"
   inkscape:version="1.0.2-2 (e86c870879, 2021-01-15)">
  <metadata
     id="metadata76">
    <rdf:RDF>
      <cc:Work
         rdf:about="">
        <dc:format>image/svg+xml</dc:format>
        <dc:type
           rdf:resource="http://purl.org/dc/dcmitype/StillImage" />
        <dc:title></dc:title>
      </cc:Work>
    </rdf:RDF>
  </metadata>
  <defs
     id="defs74" />
  <sodipodi:namedview
     pagecolor="#ffffff"
     bordercolor="#666666"
     borderopacity="1"
     objecttolerance="10"
     gridtolerance="10"
     guidetolerance="10"
     inkscape:pageopacity="0"
     inkscape:pageshadow="2"
     inkscape:window-width="2560"
     inkscape:window-height="1361"
     id="namedview72"
     showgrid="false"
     inkscape:zoom="6.8027979"
     inkscape:cx="88.639999"
     inkscape:cy="64.800003"
     inkscape:window-x="-9"
     inkscape:window-y="-9"
     inkscape:window-maximized="1"
     inkscape:current-layer="g78" />
  <g
     inkscape:groupmode="layer"
     inkscape:label="Image"
     id="g78">
    <path
       style="fill:#000000;stroke-width:0.32"
       d="m 82.638547,124.33268 c -0.529895,-0.20661 -1.438272,-0.66365 -2.018618,-1.01564 C 78.992502,122.32996 25.619488,67.016399 23.256779,63.868271 19.658351,59.07364 17.071632,53.008581 16.069752,47.016904 15.642145,44.459627 15.55864,42.63578 15.697154,38.878983 c 0.222389,-6.031642 1.148,-9.90266 3.614369,-15.115738 7.708913,-16.2940579 25.154659,-24.45704103 42.295891,-19.790534 7.728522,2.104003 13.47825,5.7163469 20.311565,12.761014 l 3.436985,3.543292 3.443015,-3.546903 C 95.628358,9.6946609 101.3921,6.0756094 109.11657,3.972711 c 15.1765,-4.13163267 30.91299,1.7942923 39.47786,14.866269 2.86386,4.37091 4.17543,7.358967 5.61754,12.798038 0.94662,3.570304 1.16238,11.073261 0.44226,15.379886 -1.00373,6.00271 -3.58713,12.053405 -7.20701,16.879844 -1.1727,1.563584 -10.84204,11.812641 -22.09556,23.420274 -11.00568,11.352001 -23.19499,23.928738 -27.08735,27.948298 -7.165568,7.39973 -8.353203,8.45024 -10.31007,9.11962 -1.366132,0.46732 -4.050842,0.44092 -5.315693,-0.0523 z"
       id="path82" />
  </g>
</svg>
