<?xml version="1.0" encoding="UTF-8" standalone="no"?>
<svg
   xmlns:dc="http://purl.org/dc/elements/1.1/"
   xmlns:cc="http://creativecommons.org/ns#"
   xmlns:rdf="http://www.w3.org/1999/02/22-rdf-syntax-ns#"
   xmlns:svg="http://www.w3.org/2000/svg"
   xmlns="http://www.w3.org/2000/svg"
   xmlns:sodipodi="http://sodipodi.sourceforge.net/DTD/sodipodi-0.dtd"
   xmlns:inkscape="http://www.inkscape.org/namespaces/inkscape"
   version="1.1"
   id="svg10"
   width="177.28"
   height="129.60001"
   viewBox="0 0 177.28 129.60001"
   sodipodi:docname="map.svg"
   inkscape:version="1.0.2-2 (e86c870879, 2021-01-15)">
  <metadata
     id="metadata16">
    <rdf:RDF>
      <cc:Work
         rdf:about="">
        <dc:format>image/svg+xml</dc:format>
        <dc:type
           rdf:resource="http://purl.org/dc/dcmitype/StillImage" />
        <dc:title></dc:title>
      </cc:Work>
    </rdf:RDF>
  </metadata>
  <defs
     id="defs14" />
  <sodipodi:namedview
     pagecolor="#ffffff"
     bordercolor="#666666"
     borderopacity="1"
     objecttolerance="10"
     gridtolerance="10"
     guidetolerance="10"
     inkscape:pageopacity="0"
     inkscape:pageshadow="2"
     inkscape:window-width="2560"
     inkscape:window-height="1361"
     id="namedview12"
     showgrid="false"
     inkscape:zoom="4.4111011"
     inkscape:cx="88.639999"
     inkscape:cy="64.800003"
     inkscape:window-x="-9"
     inkscape:window-y="-9"
     inkscape:window-maximized="1"
     inkscape:current-layer="g18"
     showborder="true" />
  <g
     inkscape:groupmode="layer"
     inkscape:label="Image"
     id="g18">
    <path
       style="fill:#000000;stroke-width:0.32"
       d="m 12.988563,126.39142 -0.878239,-0.47649 -0.645792,-1.26586 -0.645792,-1.26585 0.08403,-48.724866 0.08403,-48.724848 0.752182,-1.513494 0.752183,-1.513493 0.973392,-0.951673 0.973393,-0.951672 1.067201,-0.50642 1.0672,-0.50642 20.247223,-7.067545 20.247226,-7.067547 1.76,-0.493645 1.76,-0.493645 2.88,0.0329 2.88,0.0329 1.92,0.622142 1.92,0.622141 22.798694,8.026138 22.798696,8.026137 23.91363,-8.810448 23.91363,-8.81045 1.01522,0.190456 1.01521,0.190455 0.87124,0.685318 0.87124,0.685318 0.44122,1.055994 0.44122,1.055994 -0.002,48.09028 -0.002,48.090283 -0.31421,1.13105 -0.31422,1.13106 -0.94689,1.49309 -0.9469,1.49309 -1.22716,0.8121 -1.22716,0.8121 -19.82995,6.93433 -19.82994,6.93433 -2.51625,0.74943 -2.51626,0.74944 -2.76374,-0.003 -2.76375,-0.003 -1.6,-0.48489 -1.6,-0.4849 -23.277257,-8.18178 -23.277254,-8.18178 -23.620998,8.67014 -23.620725,8.67013 -1.101748,-0.0128 -1.101748,-0.0128 -0.87824,-0.47649 z m 125.795167,-19.95086 16.43692,-5.75422 0.12433,-0.12434 0.12434,-0.12434 -0.0813,-39.546242 -0.0813,-39.546237 -17.6,6.495253 -17.6,6.495252 -0.0813,39.396825 -0.0813,39.396839 1.20125,-0.46728 1.20127,-0.46727 z M 107.1468,72.043589 V 32.873668 l -1.36,-0.472329 -1.36,-0.47233 -15.039997,-5.352484 -15.04,-5.352486 -1.2,-0.431072 -1.2,-0.431072 v 39.272061 39.272069 l 17.2,6.133335 17.199997,6.13336 0.4,0.0204 0.4,0.0204 z m -65.158141,31.665641 16.921856,-6.232765 0.119414,-0.11941 0.119415,-0.11941 -0.08127,-39.22335 -0.08127,-39.223341 -17.676093,6.131277 -17.676094,6.131276 -0.0039,39.753141 -0.0039,39.753152 0.72,-0.3089 0.72,-0.30891 z"
       id="path54" />
  </g>
</svg>
