<?xml version="1.0" encoding="UTF-8" standalone="no"?>
<svg
   xmlns:dc="http://purl.org/dc/elements/1.1/"
   xmlns:cc="http://creativecommons.org/ns#"
   xmlns:rdf="http://www.w3.org/1999/02/22-rdf-syntax-ns#"
   xmlns:svg="http://www.w3.org/2000/svg"
   xmlns="http://www.w3.org/2000/svg"
   xmlns:sodipodi="http://sodipodi.sourceforge.net/DTD/sodipodi-0.dtd"
   xmlns:inkscape="http://www.inkscape.org/namespaces/inkscape"
   version="1.1"
   id="svg56"
   width="177.28"
   height="129.60001"
   viewBox="0 0 177.28 129.60001"
   sodipodi:docname="calenar.svg"
   inkscape:version="1.0.2-2 (e86c870879, 2021-01-15)">
  <metadata
     id="metadata62">
    <rdf:RDF>
      <cc:Work
         rdf:about="">
        <dc:format>image/svg+xml</dc:format>
        <dc:type
           rdf:resource="http://purl.org/dc/dcmitype/StillImage" />
        <dc:title></dc:title>
      </cc:Work>
    </rdf:RDF>
  </metadata>
  <defs
     id="defs60" />
  <sodipodi:namedview
     pagecolor="#ffffff"
     bordercolor="#666666"
     borderopacity="1"
     objecttolerance="10"
     gridtolerance="10"
     guidetolerance="10"
     inkscape:pageopacity="0"
     inkscape:pageshadow="2"
     inkscape:window-width="2560"
     inkscape:window-height="1361"
     id="namedview58"
     showgrid="false"
     inkscape:zoom="6.8027979"
     inkscape:cx="88.639999"
     inkscape:cy="64.800003"
     inkscape:window-x="-9"
     inkscape:window-y="-9"
     inkscape:window-maximized="1"
     inkscape:current-layer="g64" />
  <g
     inkscape:groupmode="layer"
     inkscape:label="Image"
     id="g64">
    <path
       style="fill:#000000;stroke-width:0.32"
       d="m 25.438323,127.98021 c -2.043171,-3.32057 -1.938224,-0.3483 -1.938224,-54.893728 0,-48.554547 0.01406,-49.704601 0.632342,-51.706348 1.182292,-3.827817 3.361514,-6.327698 7.0325,-8.067289 l 2.095158,-0.992844 8.24,-0.09515 8.24,-0.09515 V 6.0648481 -1.2643812e-8 h 8.640001 8.64 V 6.0800005 12.160001 H 84.620099 102.2201 V 6.0800005 -1.2643812e-8 h 8.64 8.64 V 6.0648481 12.129696 l 8.24,0.09515 8.24,0.09515 2.09516,0.992844 c 3.67098,1.739591 5.85021,4.239472 7.0325,8.067289 0.61828,2.001747 0.63234,3.151801 0.63234,51.706348 0,54.545433 0.10495,51.573163 -1.93822,54.893733 L 142.8052,129.6 H 84.620099 26.434995 Z m 107.047597,-7.16136 c 0.38665,-0.52881 0.45418,-6.72571 0.45418,-41.680005 V 38.080003 h -48.320001 -48.32 v 41.058842 c 0,42.763635 -0.03018,41.767995 1.28,42.240735 0.264,0.0953 21.62362,0.14782 47.465818,0.11681 46.107633,-0.0553 46.994303,-0.068 47.440003,-0.67754 z M 50.797942,98.428347 49.900099,97.656686 49.802079,91.296583 c -0.05811,-3.770141 0.03381,-6.706848 0.225715,-7.211604 0.666982,-1.754291 1.547673,-1.995312 7.697114,-2.106496 9.227335,-0.166832 9.293927,-0.105117 9.294698,8.613774 2.82e-4,3.19232 -0.148502,6.059664 -0.343446,6.618883 -0.649764,1.863911 -1.179216,1.988868 -8.426954,1.988868 -6.46458,0 -6.565588,-0.01046 -7.451262,-0.771661 z m 26.558589,0.204544 c -1.175423,-0.923683 -1.376453,-2.094528 -1.375935,-8.013716 6.4e-4,-8.628244 0.03547,-8.663047 8.639503,-8.663047 8.59982,0 8.63874,0.03891 8.6395,8.636129 2.9e-4,3.19232 -0.1485,6.059664 -0.34344,6.618883 -0.64948,1.863095 -1.18354,1.989623 -8.364802,1.981751 -5.658592,-0.0062 -6.581508,-0.07803 -7.194826,-0.56 z m 26.239999,0 c -1.17542,-0.923683 -1.37645,-2.094528 -1.37593,-8.013716 6.4e-4,-8.749927 0.0628,-8.807607 9.29469,-8.640692 6.14944,0.111184 7.03013,0.352205 7.69712,2.106496 0.1919,0.504756 0.28382,3.441463 0.22571,7.211604 l -0.098,6.360103 -0.89784,0.771661 c -0.88699,0.762326 -0.97795,0.771574 -7.52,0.764544 -5.78263,-0.0062 -6.71135,-0.07721 -7.32573,-0.56 z M 50.797942,72.188345 49.900099,71.416684 49.802079,65.056581 c -0.05811,-3.770141 0.03381,-6.706848 0.225715,-7.211604 0.666982,-1.754291 1.547673,-1.995312 7.697114,-2.106496 9.227335,-0.166832 9.293927,-0.105117 9.294698,8.613774 2.82e-4,3.19232 -0.148502,6.059664 -0.343446,6.618883 -0.649764,1.863911 -1.179216,1.988868 -8.426954,1.988868 -6.46458,0 -6.565588,-0.01046 -7.451262,-0.771661 z m 26.558589,0.204544 c -1.175423,-0.923683 -1.376453,-2.094528 -1.375935,-8.013716 6.4e-4,-8.628244 0.03547,-8.663047 8.639503,-8.663047 8.59982,0 8.63874,0.03891 8.6395,8.636129 2.9e-4,3.19232 -0.1485,6.059664 -0.34344,6.618883 -0.64948,1.863095 -1.18354,1.989623 -8.364802,1.981751 -5.658592,-0.0062 -6.581508,-0.07803 -7.194826,-0.56 z m 26.239999,0 c -1.17542,-0.923683 -1.37645,-2.094528 -1.37593,-8.013716 6.4e-4,-8.749927 0.0628,-8.807607 9.29469,-8.640692 6.14944,0.111184 7.03013,0.352205 7.69712,2.106496 0.1919,0.504756 0.28382,3.441463 0.22571,7.211604 l -0.098,6.360103 -0.89784,0.771661 c -0.88699,0.762326 -0.97795,0.771574 -7.52,0.764544 -5.78263,-0.0062 -6.71135,-0.07721 -7.32573,-0.56 z"
       id="path68" />
  </g>
</svg>
