<?xml version="1.0" encoding="UTF-8" standalone="no"?>
<svg
   xmlns:dc="http://purl.org/dc/elements/1.1/"
   xmlns:cc="http://creativecommons.org/ns#"
   xmlns:rdf="http://www.w3.org/1999/02/22-rdf-syntax-ns#"
   xmlns:svg="http://www.w3.org/2000/svg"
   xmlns="http://www.w3.org/2000/svg"
   xmlns:sodipodi="http://sodipodi.sourceforge.net/DTD/sodipodi-0.dtd"
   xmlns:inkscape="http://www.inkscape.org/namespaces/inkscape"
   version="1.1"
   id="svg98"
   width="177.28"
   height="129.60001"
   viewBox="0 0 177.28 129.60001"
   sodipodi:docname="user.svg"
   inkscape:version="1.0.2-2 (e86c870879, 2021-01-15)">
  <metadata
     id="metadata104">
    <rdf:RDF>
      <cc:Work
         rdf:about="">
        <dc:format>image/svg+xml</dc:format>
        <dc:type
           rdf:resource="http://purl.org/dc/dcmitype/StillImage" />
        <dc:title></dc:title>
      </cc:Work>
    </rdf:RDF>
  </metadata>
  <defs
     id="defs102" />
  <sodipodi:namedview
     pagecolor="#ffffff"
     bordercolor="#666666"
     borderopacity="1"
     objecttolerance="10"
     gridtolerance="10"
     guidetolerance="10"
     inkscape:pageopacity="0"
     inkscape:pageshadow="2"
     inkscape:window-width="2560"
     inkscape:window-height="1361"
     id="namedview100"
     showgrid="false"
     inkscape:zoom="6.8027979"
     inkscape:cx="88.639999"
     inkscape:cy="64.800003"
     inkscape:window-x="-9"
     inkscape:window-y="-9"
     inkscape:window-maximized="1"
     inkscape:current-layer="g106" />
  <g
     inkscape:groupmode="layer"
     inkscape:label="Image"
     id="g106">
    <path
       style="fill:#000000;stroke-width:0.32"
       d="m 35.767032,125.36674 c -4.228157,-1.32944 -7.228472,-5.08003 -7.893999,-9.868 -0.435341,-3.13196 0.118773,-9.2144 1.169869,-12.84151 2.858012,-9.8624 10.071557,-17.357882 19.865048,-20.641457 3.27304,-1.097392 5.751079,-1.372973 13.965684,-1.553113 l 7.906601,-0.173386 2.493399,0.983869 c 5.5532,2.191235 9.523619,2.941863 15.514694,2.93313 6.00153,-0.0087 11.046054,-0.961213 15.849062,-2.9925 1.91347,-0.809241 2.22429,-0.84176 8.04609,-0.84176 10.22084,0 14.63929,0.710944 19.80656,3.186944 3.34712,1.603841 5.1557,2.840439 7.71449,5.274711 6.9056,6.569543 10.08161,14.984552 9.55956,25.328522 -0.17736,3.51401 -0.67038,5.0095 -2.44606,7.41963 -1.21424,1.64808 -3.79792,3.35177 -5.8527,3.85929 -2.26099,0.55845 -103.913149,0.48693 -105.698298,-0.0744 z M 86.050398,71.995984 C 74.62997,71.126243 64.823346,64.810892 58.948219,54.542494 53.66876,45.315188 53.385912,32.623427 58.243755,22.932009 62.730894,13.980147 70.648594,7.625286 80.672779,4.9301485 83.348078,4.2108579 84.4386,4.0950886 88.727032,4.0751119 c 4.464742,-0.020797 5.289718,0.065877 8.262125,0.8680471 10.339193,2.7902639 17.834083,8.876975 22.456673,18.237407 3.87257,7.841708 4.52721,16.756279 1.84992,25.191445 -1.15618,3.642714 -2.00844,5.406167 -4.25297,8.8 -3.84274,5.810391 -9.80358,10.438712 -16.8263,13.064856 -4.019224,1.502989 -9.155032,2.140742 -14.166082,1.759117 z"
       id="path110" />
  </g>
</svg>
