<?xml version="1.0" encoding="UTF-8" standalone="no"?>
<svg
   xmlns:dc="http://purl.org/dc/elements/1.1/"
   xmlns:cc="http://creativecommons.org/ns#"
   xmlns:rdf="http://www.w3.org/1999/02/22-rdf-syntax-ns#"
   xmlns:svg="http://www.w3.org/2000/svg"
   xmlns="http://www.w3.org/2000/svg"
   xmlns:sodipodi="http://sodipodi.sourceforge.net/DTD/sodipodi-0.dtd"
   xmlns:inkscape="http://www.inkscape.org/namespaces/inkscape"
   version="1.1"
   id="svg84"
   width="177.28"
   height="129.60001"
   viewBox="0 0 177.28 129.60001"
   sodipodi:docname="purchase.svg"
   inkscape:version="1.0.2-2 (e86c870879, 2021-01-15)">
  <metadata
     id="metadata90">
    <rdf:RDF>
      <cc:Work
         rdf:about="">
        <dc:format>image/svg+xml</dc:format>
        <dc:type
           rdf:resource="http://purl.org/dc/dcmitype/StillImage" />
        <dc:title></dc:title>
      </cc:Work>
    </rdf:RDF>
  </metadata>
  <defs
     id="defs88" />
  <sodipodi:namedview
     pagecolor="#ffffff"
     bordercolor="#666666"
     borderopacity="1"
     objecttolerance="10"
     gridtolerance="10"
     guidetolerance="10"
     inkscape:pageopacity="0"
     inkscape:pageshadow="2"
     inkscape:window-width="2560"
     inkscape:window-height="1361"
     id="namedview86"
     showgrid="false"
     inkscape:zoom="6.8027979"
     inkscape:cx="88.639999"
     inkscape:cy="64.800003"
     inkscape:window-x="-9"
     inkscape:window-y="-9"
     inkscape:window-maximized="1"
     inkscape:current-layer="g92" />
  <g
     inkscape:groupmode="layer"
     inkscape:label="Image"
     id="g92">
    <path
       style="fill:#000000;stroke-width:0.32"
       d="m 32.425686,124.89513 c -2.236697,-0.92196 -3.31367,-1.68291 -5.054109,-3.57106 -1.784272,-1.93571 -2.774726,-4.16202 -3.344249,-7.51709 -0.253946,-1.496 -1.951009,-13.196 -3.771253,-26.000008 L 16.94654,64.52697 l -1.76322,-0.007 c -2.191288,-0.0088 -4.004193,-0.802943 -5.3613415,-2.348648 -1.345662,-1.532612 -1.521879,-2.260273 -1.521879,-6.284353 0,-4.008227 0.177969,-4.753738 1.492126,-6.250477 1.9542545,-2.225773 1.8789715,-2.212141 13.1954205,-2.389524 l 10.207547,-0.16 14.93112,-20.480001 C 64.300777,4.4215547 64.263117,4.4653918 67.773875,3.7365614 c 3.479558,-0.7223536 7.27976,1.0350677 8.975546,4.1507831 1.245513,2.2884205 1.482838,5.3033255 0.579324,7.3596215 -0.347996,0.792 -5.622841,8.280001 -11.721878,16.640001 l -11.089158,15.200001 16.171193,0.08293 c 8.89416,0.04561 23.445857,0.04561 32.337108,0 l 16.1659,-0.08293 -11.0845,-15.200001 c -6.09647,-8.36 -11.368941,-15.848001 -11.716591,-16.640001 -0.8932,-2.034876 -0.6642,-5.073681 0.55053,-7.3055591 1.70406,-3.1309048 5.543091,-4.9235302 9.004971,-4.2048455 3.49787,0.7261544 3.47226,0.6963471 19.65198,22.8704056 l 14.94362,20.480001 10.19909,0.16 c 11.30704,0.177383 11.23288,0.163943 13.18697,2.389524 1.31415,1.496739 1.49212,2.24225 1.49212,6.250477 0,4.02408 -0.17622,4.751741 -1.52188,6.284365 -1.35711,1.545664 -3.17006,2.339873 -5.36119,2.348609 l -1.76307,0.007 -3.46508,24.400001 c -1.90579,13.420006 -3.67147,25.322146 -3.92374,26.449206 -0.25226,1.12706 -0.83932,2.74862 -1.30459,3.60346 -1.13148,2.07891 -3.8407,4.58606 -6.09961,5.64466 l -1.84084,0.86267 -52.960001,0.0739 -52.96,0.0739 z m 27.060205,-17.28529 c 0.696182,-0.37558 1.704182,-1.30713 2.24,-2.07013 l 0.974208,-1.38727 0.09635,-16.532739 c 0.05299,-9.093002 0.01101,-17.125803 -0.0933,-17.85067 -0.237769,-1.652375 -2.026614,-3.821565 -3.825187,-4.6385 -3.837433,-1.743014 -8.279942,0.543869 -9.144246,4.70721 -0.230042,1.108106 -0.314135,7.08627 -0.250093,17.779336 0.106986,17.864263 -0.0079,16.905703 2.290579,19.114643 2.03065,1.95157 5.078544,2.29863 7.711693,0.87812 z m 30.571354,0.004 c 0.985955,-0.49548 1.739434,-1.21103 2.400004,-2.27919 l 0.96285,-1.55696 0.091,-16.590578 c 0.061,-11.11985 -0.0226,-17.012372 -0.25346,-17.869719 -0.71549,-2.657137 -3.554252,-4.776689 -6.39751,-4.776689 -2.847302,0 -5.682067,2.119748 -6.399923,4.785655 -0.234199,0.86975 -0.316522,6.717296 -0.253466,18.004203 l 0.09339,16.716098 1.05207,1.5152 c 1.117434,1.60933 1.703661,2.03 3.74793,2.68943 1.56713,0.50551 3.066397,0.31272 4.957146,-0.63746 z m 29.977155,0.39361 c 1.60548,-0.49616 3.49027,-2.7766 3.90915,-4.72973 0.47199,-2.20084 0.49098,-31.372724 0.0219,-33.560244 -0.8696,-4.054804 -5.34316,-6.30418 -9.12315,-4.587258 -1.79857,0.816934 -3.58742,2.986125 -3.82519,4.638499 -0.1043,0.724868 -0.14629,8.757668 -0.0933,17.850671 l 0.0964,16.532742 0.96443,1.37192 c 1.93426,2.75152 4.56057,3.56174 8.04987,2.4834 z"
       id="path96" />
  </g>
</svg>
